<svg width="126" height="34" viewBox="0 0 126 34" fill="none" xmlns="http://www.w3.org/2000/svg">
<path d="M40 10.7349H43.0287V6.94698H45.3236V10.7349H49.4007V13.01H45.3236V20.7591H49.4007V23.0341H45.3236C45.0129 23.0341 44.7178 22.9764 44.4382 22.8609C44.1587 22.7377 43.914 22.576 43.7044 22.3759C43.4947 22.168 43.3277 21.9255 43.2035 21.6483C43.087 21.3711 43.0287 21.0747 43.0287 20.7591V13.01H40V10.7349Z" fill="#2A2A2A"/>
<path d="M61.282 18.0451H53.0695V20.7591H61.282V23.0341H53.0695C52.7589 23.0341 52.4638 22.9764 52.1842 22.8609C51.9046 22.7377 51.66 22.576 51.4503 22.3759C51.2484 22.168 51.0853 21.9255 50.9611 21.6483C50.8446 21.3711 50.7863 21.0747 50.7863 20.7591V13.01C50.7863 12.6943 50.8446 12.3979 50.9611 12.1207C51.0853 11.8436 51.2484 11.6049 51.4503 11.4047C51.66 11.1969 51.9046 11.0352 52.1842 10.9197C52.4638 10.7965 52.7589 10.7349 53.0695 10.7349H58.9872C59.3056 10.7349 59.6046 10.7965 59.8842 10.9197C60.1637 11.0352 60.4045 11.1969 60.6064 11.4047C60.8161 11.6049 60.9792 11.8436 61.0956 12.1207C61.2199 12.3979 61.282 12.6943 61.282 13.01V18.0451ZM53.0695 13.01V15.7701H58.9872V13.01H53.0695Z" fill="#2A2A2A"/>
<path d="M64.9509 13.01V20.7591H70.8685V18.6803H73.1634V20.7591C73.1634 21.0747 73.1012 21.3711 72.977 21.6483C72.8605 21.9255 72.6974 22.168 72.4877 22.3759C72.2858 22.576 72.0451 22.7377 71.7655 22.8609C71.4859 22.9764 71.1869 23.0341 70.8685 23.0341H64.9509C64.6402 23.0341 64.3451 22.9764 64.0655 22.8609C63.786 22.7377 63.5413 22.576 63.3316 22.3759C63.1297 22.168 62.9666 21.9255 62.8424 21.6483C62.7259 21.3711 62.6677 21.0747 62.6677 20.7591V13.01C62.6677 12.6943 62.7259 12.3979 62.8424 12.1207C62.9666 11.8436 63.1297 11.6049 63.3316 11.4047C63.5413 11.1969 63.786 11.0352 64.0655 10.9197C64.3451 10.7965 64.6402 10.7349 64.9509 10.7349H70.8685C71.1869 10.7349 71.4859 10.7965 71.7655 10.9197C72.0451 11.0352 72.2858 11.1969 72.4877 11.4047C72.6974 11.6049 72.8605 11.8436 72.977 12.1207C73.1012 12.3979 73.1634 12.6943 73.1634 13.01V15.0887H70.8685V13.01H64.9509Z" fill="#2A2A2A"/>
<path d="M85.5223 23.0341H83.2275V13.01H76.8322V23.0341H74.549V6H76.8322V12.906C76.8477 12.6058 76.9176 12.3248 77.0419 12.063C77.1661 11.7935 77.3292 11.5626 77.5311 11.3701C77.7408 11.1699 77.9815 11.0159 78.2534 10.9081C78.5252 10.7927 78.8164 10.7349 79.127 10.7349H83.2275C83.5459 10.7349 83.8448 10.7965 84.1244 10.9197C84.404 11.0352 84.6447 11.1969 84.8467 11.4047C85.0563 11.6049 85.2194 11.8436 85.3359 12.1207C85.4602 12.3979 85.5223 12.6943 85.5223 13.01V23.0341Z" fill="#2A2A2A"/>
<path d="M86.8963 13.01C86.8963 12.6943 86.9545 12.3979 87.071 12.1207C87.1953 11.8436 87.3584 11.6049 87.5603 11.4047C87.7699 11.1969 88.0146 11.0352 88.2942 10.9197C88.5737 10.7965 88.8688 10.7349 89.1795 10.7349H93.2915C93.5944 10.7349 93.8818 10.7927 94.1536 10.9081C94.4254 11.0159 94.6622 11.1699 94.8642 11.3701C95.0738 11.5626 95.2408 11.7935 95.3651 12.063C95.4971 12.3248 95.567 12.6058 95.5747 12.906V10.7349H97.8696V25.7249C97.8696 26.0406 97.8075 26.337 97.6832 26.6142C97.5667 26.8913 97.4036 27.13 97.1939 27.3302C96.992 27.5381 96.7513 27.6997 96.4717 27.8152C96.1921 27.9384 95.8931 28 95.5747 28H88.3291V25.7249H95.5747V22.5606H89.1795C88.8688 22.5606 88.5737 22.5029 88.2942 22.3874C88.0146 22.2642 87.7699 22.1025 87.5603 21.9024C87.3584 21.6945 87.1953 21.452 87.071 21.1748C86.9545 20.8976 86.8963 20.6012 86.8963 20.2856V13.01ZM95.5747 20.2856V13.01H89.1795V20.2856H95.5747Z" fill="#4A8EFF"/>
<path d="M99.2436 10.7349H101.527V20.7591H107.922V10.7349H110.217V23.0341H107.922V20.9554C107.899 21.2402 107.821 21.5097 107.689 21.7638C107.557 22.0178 107.386 22.2411 107.176 22.4336C106.975 22.6184 106.742 22.7647 106.478 22.8724C106.214 22.9802 105.934 23.0341 105.639 23.0341H101.527C101.216 23.0341 100.921 22.9764 100.641 22.8609C100.362 22.7377 100.117 22.576 99.9076 22.3759C99.7056 22.168 99.5426 21.9255 99.4183 21.6483C99.3018 21.3711 99.2436 21.0747 99.2436 20.7591V10.7349Z" fill="#4A8EFF"/>
<path d="M114.002 10.7349V23.0341H111.707V10.7349H114.002ZM111.591 6H114.119V8.36745H111.591V6Z" fill="#4A8EFF"/>
<path d="M115.504 17.664C115.504 17.3484 115.563 17.0558 115.679 16.7864C115.803 16.5092 115.966 16.2667 116.168 16.0588C116.378 15.8509 116.623 15.6892 116.902 15.5738C117.182 15.4506 117.477 15.389 117.787 15.389H123.705V13.01H116.215V10.7349H123.705C124.024 10.7349 124.323 10.7965 124.602 10.9197C124.882 11.0352 125.122 11.1969 125.324 11.4047C125.534 11.6049 125.697 11.8436 125.814 12.1207C125.938 12.3979 126 12.6943 126 13.01V23.0341H123.705V20.9554C123.682 21.2402 123.604 21.5097 123.472 21.7638C123.34 22.0178 123.169 22.2411 122.96 22.4336C122.758 22.6184 122.525 22.7647 122.261 22.8724C121.997 22.9802 121.717 23.0341 121.422 23.0341H117.787C117.477 23.0341 117.182 22.9764 116.902 22.8609C116.623 22.7377 116.378 22.576 116.168 22.3759C115.966 22.168 115.803 21.9255 115.679 21.6483C115.563 21.3711 115.504 21.0747 115.504 20.7591V17.664ZM117.787 20.7591H123.705V17.664H117.787V20.7591Z" fill="#4A8EFF"/>
<path d="M0.85 0H33.15C33.6194 0 34 0.380558 34 0.85V7.65C34 8.11944 33.6194 8.5 33.15 8.5H0.85C0.380558 8.5 0 8.11944 0 7.65V0.85C0 0.380558 0.380558 0 0.85 0Z" fill="#131313"/>
<path d="M13.6 0H20.4C20.8694 0 21.25 0.380558 21.25 0.85V33.15C21.25 33.6194 20.8694 34 20.4 34H13.6C13.1306 34 12.75 33.6194 12.75 33.15V0.85C12.75 0.380558 13.1306 0 13.6 0Z" fill="#131313"/>
<path d="M12.75 25.5H29.75V29.75C29.75 32.0972 27.8472 34 25.5 34H12.75V25.5Z" fill="#4A8EFF"/>
<path d="M26.35 14.875H28.9C29.3694 14.875 29.75 15.2556 29.75 15.725V28.9C29.75 29.3694 29.3694 29.75 28.9 29.75H26.35C25.8806 29.75 25.5 29.3694 25.5 28.9V15.725C25.5 15.2556 25.8806 14.875 26.35 14.875Z" fill="#4A8EFF"/>
<path d="M22.1 19.125H28.9C29.3694 19.125 29.75 19.5056 29.75 19.975V22.525C29.75 22.9944 29.3694 23.375 28.9 23.375H22.1C21.6306 23.375 21.25 22.9944 21.25 22.525V19.975C21.25 19.5056 21.6306 19.125 22.1 19.125Z" fill="#4A8EFF"/>
</svg>
